<!-- Generated by IcoMoon.io -->
<svg version="1.1" xmlns="http://www.w3.org/2000/svg" width="14" height="14" viewBox="0 0 14 14">
<title>instagram</title>
<path d="M4.083 0.583c-0.967 0-1.842 0.393-2.475 1.025s-1.025 1.509-1.025 2.475v5.833c0 0.967 0.393 1.842 1.025 2.475s1.508 1.025 2.475 1.025h5.833c0.967 0 1.842-0.393 2.475-1.025s1.025-1.509 1.025-2.475v-5.833c0-0.967-0.393-1.842-1.025-2.475s-1.508-1.025-2.475-1.025zM4.083 1.75h5.833c0.645 0 1.227 0.261 1.65 0.684s0.684 1.005 0.684 1.65v5.833c0 0.645-0.261 1.227-0.684 1.65s-1.005 0.684-1.65 0.684h-5.833c-0.645 0-1.227-0.261-1.65-0.684s-0.684-1.005-0.684-1.65v-5.833c0-0.645 0.261-1.227 0.684-1.65s1.005-0.684 1.65-0.684zM9.91 6.547c-0.088-0.567-0.333-1.083-0.697-1.497-0.44-0.502-1.052-0.855-1.755-0.959-0.271-0.043-0.566-0.045-0.862-0.001-0.797 0.118-1.471 0.549-1.915 1.147s-0.661 1.369-0.542 2.165 0.549 1.471 1.147 1.915 1.369 0.661 2.165 0.543 1.471-0.549 1.915-1.147 0.661-1.369 0.542-2.165zM8.756 6.718c0.071 0.478-0.058 0.939-0.325 1.299s-0.671 0.618-1.149 0.688-0.939-0.058-1.299-0.325-0.618-0.671-0.688-1.149 0.058-0.939 0.325-1.299 0.671-0.618 1.149-0.688c0.183-0.027 0.359-0.024 0.508-0.001 0.432 0.064 0.797 0.274 1.060 0.575 0.219 0.25 0.367 0.562 0.42 0.9zM10.208 4.375c0.322 0 0.583-0.261 0.583-0.583s-0.261-0.583-0.583-0.583-0.583 0.261-0.583 0.583 0.261 0.583 0.583 0.583z"></path>
</svg>
